<svg xmlns="http://www.w3.org/2000/svg" width="430" height="430" style="width:100%;height:100%;transform:translate3d(0,0,0)" viewBox="0 0 430 430"><defs><clipPath id="i"><path d="M0 0h430v430H0z"/></clipPath><clipPath id="q"><path d="M0 0h430v430H0z"/></clipPath><clipPath id="p"><path d="M0 0h430v430H0z"/></clipPath><clipPath id="o"><path d="M0 0h430v430H0z"/></clipPath><clipPath id="m"><path d="M0 0h430v430H0z"/></clipPath><clipPath id="j"><path d="M0 0h430v430H0z"/></clipPath><filter id="a" width="100%" height="100%" x="0%" y="0%" filterUnits="objectBoundingBox"><feComponentTransfer in="SourceGraphic"><feFuncA tableValues="1.0 0.0" type="table"/></feComponentTransfer></filter><filter id="c" width="100%" height="100%" x="0%" y="0%" filterUnits="objectBoundingBox"><feComponentTransfer in="SourceGraphic"><feFuncA tableValues="1.0 0.0" type="table"/></feComponentTransfer></filter><filter id="e" width="100%" height="100%" x="0%" y="0%" filterUnits="objectBoundingBox"><feComponentTransfer in="SourceGraphic"><feFuncA tableValues="1.0 0.0" type="table"/></feComponentTransfer></filter><filter id="g" width="100%" height="100%" x="0%" y="0%" filterUnits="objectBoundingBox"><feComponentTransfer in="SourceGraphic"><feFuncA tableValues="1.0 0.0" type="table"/></feComponentTransfer></filter><path id="b" style="display:none"/><path id="d" style="display:none"/><path id="f" style="display:none"/><path id="h" style="display:none"/><mask id="r" mask-type="alpha"><g filter="url(#a)"><path fill="#fff" d="M0 0h430v430H0z" opacity="0"/><use xmlns:a0="http://www.w3.org/1999/xlink" a0:href="#b"/></g></mask><mask id="n" mask-type="alpha"><g filter="url(#c)"><path fill="#fff" d="M0 0h430v430H0z" opacity="0"/><use xmlns:a1="http://www.w3.org/1999/xlink" a1:href="#d"/></g></mask><mask id="l" mask-type="alpha"><g filter="url(#e)"><path fill="#fff" d="M0 0h430v430H0z" opacity="0"/><use xmlns:a2="http://www.w3.org/1999/xlink" a2:href="#f"/></g></mask><mask id="k" mask-type="alpha"><g filter="url(#g)"><path fill="#fff" d="M0 0h430v430H0z" opacity="0"/><use xmlns:a3="http://www.w3.org/1999/xlink" a3:href="#h"/></g></mask></defs><g clipPath="url(#i)"><g fill="none" clipPath="url(#j)" style="display:none"><g mask="url(#k)" style="display:none"><path class="secondary"/><path class="secondary"/></g><g mask="url(#l)" style="display:none"><path class="secondary"/><path class="secondary"/></g><g style="display:none"><path class="primary"/><path class="primary"/><path class="secondary"/></g></g><g clipPath="url(#m)" style="display:none"><g mask="url(#n)" style="display:none"><path fill="none" class="primary"/></g><path fill="none" class="secondary" style="display:none"/></g><g fill="none" clipPath="url(#o)" style="display:none"><path class="secondary" style="display:none"/><path class="primary" style="display:none"/></g><g fill="none" stroke="#1C1314" stroke-linejoin="round" stroke-width="18" clipPath="url(#p)" style="display:block"><path d="M-45-70c-63.513 0-115 51.487-115 115v25h320V45c0-63.513-51.487-115-115-115h-90z" class="primary" style="display:block" transform="translate(215 305)"/><path stroke-linecap="round" d="M0 75c41.421 0 75-33.579 75-75S41.421-75 0-75-75-41.421-75 0s33.579 75 75 75z" class="secondary" style="display:block" transform="translate(215 125)"/></g><g clipPath="url(#q)" style="display:none"><g mask="url(#r)" style="display:none"><path fill="none" class="primary"/></g><path fill="none" class="secondary" style="display:none"/><path fill="none" class="secondary" style="display:none"/></g></g></svg>