<svg xmlns="http://www.w3.org/2000/svg" width="430" height="430" style="width:100%;height:100%;transform:translate3d(0,0,0)" viewBox="0 0 430 430"><defs><clipPath id="g"><path d="M0 0h430v430H0z"/></clipPath><clipPath id="p"><path d="M0 0h430v430H0z"/></clipPath><clipPath id="o"><path d="M0 0h430v430H0z"/></clipPath><clipPath id="n"><path d="M0 0h430v430H0z"/></clipPath><clipPath id="m"><path d="M0 0h430v430H0z"/></clipPath><clipPath id="h"><path d="M0 0h430v430H0z"/></clipPath><clipPath id="i"><path d="M0 0h430v430H0z"/></clipPath><filter id="a" width="100%" height="100%" x="0%" y="0%" filterUnits="objectBoundingBox"><feComponentTransfer in="SourceGraphic"><feFuncA tableValues="1.0 0.0" type="table"/></feComponentTransfer></filter><filter id="c" width="100%" height="100%" x="0%" y="0%" filterUnits="objectBoundingBox"><feComponentTransfer in="SourceGraphic"><feFuncA tableValues="1.0 0.0" type="table"/></feComponentTransfer></filter><filter id="e" width="100%" height="100%" x="0%" y="0%" filterUnits="objectBoundingBox"><feComponentTransfer in="SourceGraphic"><feFuncA tableValues="1.0 0.0" type="table"/></feComponentTransfer></filter><path id="b" style="display:none"/><path id="d" style="display:none"/><path id="f" style="display:none"/><mask id="l" mask-type="alpha"><g filter="url(#a)"><path fill="#fff" d="M0 0h430v430H0z" opacity="0"/><use xmlns:a0="http://www.w3.org/1999/xlink" a0:href="#b"/></g></mask><mask id="k" mask-type="alpha"><g filter="url(#c)"><path fill="#fff" d="M0 0h430v430H0z" opacity="0"/><use xmlns:a1="http://www.w3.org/1999/xlink" a1:href="#d"/></g></mask><mask id="j" mask-type="alpha"><g filter="url(#e)"><path fill="#fff" d="M0 0h430v430H0z" opacity="0"/><use xmlns:a2="http://www.w3.org/1999/xlink" a2:href="#f"/></g></mask></defs><g clip-path="url(#g)"><g clip-path="url(#h)" style="display:none"><path fill="none" class="secondary" style="display:none"/><g clip-path="url(#i)" mask="url(#j)" style="display:none"><g mask="url(#k)" style="display:none"><path fill="none" class="secondary"/></g><g mask="url(#l)" style="display:none"><path fill="none" class="secondary"/></g><path fill="none" class="secondary" style="display:none"/></g><g fill="none" style="display:none"><path class="secondary"/><path class="primary"/><path class="primary"/></g><g style="display:none"><path fill="none" class="primary"/><path class="primary"/><path fill="none" class="primary"/></g></g><g clip-path="url(#m)" style="display:none"><g fill="none" style="display:none"><path class="secondary"/><path class="primary"/><path class="primary"/></g><g style="display:none"><path fill="none" class="primary"/><path class="primary"/><path fill="none" class="primary"/></g></g><g clip-path="url(#n)" style="display:none"><path fill="none" class="secondary" style="display:none"/><g fill="none" style="display:none"><path class="secondary"/><path class="primary"/><path class="primary"/></g><g style="display:none"><path fill="none" class="primary"/><path class="primary"/><path fill="none" class="primary"/></g></g><g clip-path="url(#o)" style="display:block"><g fill="none" stroke="#1C1314" stroke-linecap="round" stroke-linejoin="round" stroke-width="18.963" style="display:block"><path d="M327.083 226.089 301.21 335.636m-30.027-90.902-10.922 90.941m-42.828-78.811-.399 78.811M107.083 226.201l26.126 109.59m29.976-89.298 11.076 88.438" class="secondary"/><path d="M399.9 167.029v17.2c0 7.12-5.78 12.9-12.9 12.9H43c-7.12 0-12.9-5.78-12.9-12.9v-17.2c0-7.12 5.78-12.9 12.9-12.9h344c7.12 0 12.9 5.78 12.9 12.9zM45.15 198.204l46.316 154.961c3.398 11.369 15.791 20.6 27.657 20.6h193.332c11.866 0 24.168-9.258 27.453-20.66l44.942-155.976" class="primary"/></g><g style="display:block"><path fill="none" stroke="#1C1314" stroke-linecap="round" stroke-linejoin="round" stroke-width="18.963" d="m216.982 201.881.327-143.968m-4.87 139.766h-.01m6.67-.02h.02" class="primary"/><path fill="#1C1314" d="M233.477 208.653c0 9.083-7.912 16.446-17.673 16.446s-17.673-7.363-17.673-16.446c0-9.083 7.912-16.446 17.673-16.446s17.673 7.363 17.673 16.446z" class="primary"/><path fill="none" stroke="#1C1314" stroke-miterlimit="10" stroke-width="3" d="M233.477 208.653c0 9.083-7.912 16.446-17.673 16.446s-17.673-7.363-17.673-16.446c0-9.083 7.912-16.446 17.673-16.446s17.673 7.363 17.673 16.446z" class="primary"/></g></g><g clip-path="url(#p)" style="display:none"><g fill="none" style="display:none"><path class="secondary"/><path class="primary"/><path class="primary"/></g><g style="display:none"><path fill="none" class="primary"/><path class="primary"/><path fill="none" class="primary"/></g></g></g></svg>